<svg width="23" height="25" viewBox="0 0 23 25" fill="none" xmlns="http://www.w3.org/2000/svg">
<path d="M21.0498 11.0493L10.7003 21.3988C8.71142 23.3877 5.48959 23.3877 3.50069 21.3988C1.51179 19.4099 1.51179 16.1881 3.50069 14.1992L14.7501 2.94975C15.9921 1.70781 18.0079 1.70781 19.2499 2.94975C20.4918 4.19168 20.4918 6.20758 19.2499 7.44952L9.80037 16.899C9.30539 17.394 8.49543 17.394 8.00046 16.899C7.50548 16.4041 7.50548 15.5941 8.00046 15.0991L16.55 6.54956L15.2001 5.19963L6.65053 13.7492C5.40859 14.9911 5.40859 17.007 6.65053 18.249C7.89246 19.4909 9.90836 19.4909 11.1503 18.249L20.5998 8.79945C22.5887 6.81055 22.5887 3.58871 20.5998 1.59982C18.6109 -0.389082 15.3891 -0.389082 13.4002 1.59982L2.15076 12.8492C-0.585103 15.5851 -0.585102 20.0129 2.15076 22.7487C4.88662 25.4846 9.31439 25.4846 12.0503 22.7487L22.3997 12.3993L21.0498 11.0493Z" fill="#2ECCAD"/>
</svg>
